<svg width="355" height="353" viewBox="0 0 355 353" fill="none" xmlns="http://www.w3.org/2000/svg">
<g clip-path="url(#clip0_2582_1672)">
<path d="M130.5 67C130.5 62.8579 133.858 59.5 138 59.5H216C220.142 59.5 223.5 62.8579 223.5 67V287C223.5 291.142 220.142 294.5 216 294.5H138C133.858 294.5 130.5 291.142 130.5 287V67Z" fill="black" stroke="#5B5D5C"/>
<path d="M223.5 103.961C223.5 108.104 220.142 111.461 216 111.461H138C133.858 111.461 130.5 108.104 130.5 103.961V66.9999C130.5 62.8577 133.858 59.4999 138 59.4999H216C220.142 59.4999 223.5 62.8577 223.5 66.9999V103.961Z" fill="#626365" stroke="#5B5D5C"/>
<rect x="130" y="96.3848" width="94" height="16.6154" fill="#626365"/>
<path d="M224 122H225C225.552 122 226 122.448 226 123V262C226 262.552 225.552 263 225 263H224V122Z" fill="#070707"/>
<path d="M131 286H223V287C223 290.866 219.866 294 216 294H138C134.134 294 131 290.866 131 287V286Z" fill="#141414"/>
<path d="M171.794 96.7002C167.029 96.2835 162.82 94.516 160.082 91.7785C158.52 90.2193 157.572 88.5266 157.146 86.5312C156.951 85.623 156.951 84.1192 157.149 83.2012C157.745 80.4278 159.535 78.0028 162.358 76.1506C168.793 71.932 178.653 71.9515 185.029 76.1994C185.876 76.7626 186.423 77.2118 187.191 77.967C188.158 78.9207 188.838 79.8712 189.554 81.2644C189.58 81.3165 189.714 81.3816 189.847 81.4076C190.3 81.502 190.902 81.8536 191.387 82.306C191.764 82.6576 192.054 83.0417 192.773 84.1289C193.499 85.2259 196.78 90.2909 196.979 90.6229C197.057 90.7531 196.904 90.9582 196.732 90.9582C196.608 90.9582 196.523 90.8768 196.341 90.5903C196.214 90.3885 195.378 89.0897 194.482 87.703C191.315 82.8008 191.146 82.573 190.264 82.1303L189.801 81.8992H188.441C187.08 81.8992 187.08 81.8992 187.048 82.0424C186.869 82.8269 186.833 83.0189 186.872 83.0547C186.898 83.0775 187.669 83.517 188.587 84.0313L190.257 84.9655L190.153 85.1836C190.094 85.304 190.029 85.4017 190.007 85.4017C189.984 85.4017 188.578 84.6237 186.882 83.6699C185.186 82.7194 183.698 81.9122 183.578 81.8796C183.096 81.7462 182.354 82.28 182.354 82.7618C182.354 83.25 182.497 83.39 185.479 85.8313C187.337 87.3547 188.402 88.2694 188.565 88.4843C188.861 88.8781 189.16 89.4576 189.434 90.1704C189.919 91.4269 190.706 92.1268 191.999 92.4523L192.425 92.5597L192.389 92.7908C192.37 92.9178 192.344 93.0349 192.327 93.0512C192.272 93.1131 191.416 92.8396 190.921 92.602C190.147 92.2309 189.613 91.7003 189.089 90.7759C189.085 90.7694 188.779 90.8735 188.415 91.007C187.764 91.2446 187.731 91.2641 187.116 91.8663C184.489 94.4314 180.72 96.0687 176.172 96.6253C175.427 96.7295 172.582 96.7718 171.794 96.7002ZM176.322 95.9125C178.409 95.6358 180.03 95.2224 181.722 94.529C183.5 93.7999 185.179 92.755 186.351 91.6417L186.813 91.2023L185.648 90.6457C184.404 90.05 184.281 89.9523 184.121 89.4217C184.02 89.0865 184.134 88.7284 184.453 88.3866L184.701 88.1164L184.16 87.7063C183.734 87.3808 183.6 87.2408 183.516 87.026C183.382 86.6777 183.431 86.3001 183.646 85.9974L183.809 85.7662L182.103 85.4668C181.166 85.3008 180.29 85.1347 180.16 85.0957C179.903 85.0208 179.645 84.7279 179.577 84.4447C179.541 84.2917 180.378 80.2097 180.563 79.6271C180.648 79.3667 181.003 79.0509 181.273 79.0021C181.556 78.95 186.582 79.8322 186.833 79.9786C187.23 80.2097 187.354 80.5808 187.23 81.1537L187.178 81.3914H187.455C187.608 81.3914 187.969 81.3718 188.259 81.349L188.786 81.3067L188.525 80.8217C187.741 79.3602 186.312 77.8823 184.551 76.7105C183.727 76.1636 181.973 75.2978 180.915 74.9202C179.411 74.3831 177.592 73.9794 175.844 73.7972C174.883 73.6962 172.374 73.6995 171.443 73.8004C169.213 74.0413 167.188 74.5458 165.417 75.301C161.316 77.049 158.559 79.9461 157.852 83.2468C157.667 84.1094 157.654 85.6198 157.823 86.4042C158.197 88.1392 159.011 89.6398 160.336 91.0363C163.038 93.8813 167.165 95.6325 172.113 96.0264C172.777 96.0785 175.648 96.0004 176.322 95.9125ZM175.42 92.8071C175.166 92.7322 174.906 92.4295 174.851 92.1398C174.815 91.951 174.857 91.8208 175.127 91.2967C176.221 89.1809 176.696 87.2343 176.696 84.8743C176.696 82.5925 176.276 80.8152 175.232 78.6863C175.007 78.2306 174.825 77.8042 174.825 77.7424C174.825 77.5145 175.013 77.1857 175.219 77.0588C175.498 76.883 175.97 76.9156 176.198 77.1271C176.286 77.2085 176.511 77.5796 176.7 77.9507C177.448 79.4188 177.959 81.03 178.213 82.7064C178.369 83.7448 178.402 85.7109 178.275 86.6614C178.044 88.4127 177.582 89.9784 176.84 91.5083C176.39 92.4327 176.11 92.8136 175.876 92.8136C175.83 92.8136 175.752 92.8266 175.707 92.8396C175.661 92.8526 175.531 92.8396 175.42 92.8071ZM172.377 91.2153C171.986 91.1014 171.703 90.6196 171.817 90.2616C171.843 90.1737 172.029 89.7733 172.227 89.3697C173.064 87.6607 173.412 85.8313 173.243 84.0345C173.103 82.5567 172.839 81.6257 172.172 80.2651C171.726 79.3504 171.703 79.2104 171.963 78.8393C172.211 78.4878 172.829 78.4324 173.152 78.7287C173.376 78.9337 174.076 80.3953 174.346 81.2221C175.238 83.9564 175.101 86.8958 173.959 89.5812C173.37 90.9582 172.956 91.3846 172.377 91.2153ZM169.239 89.6008C168.998 89.4934 168.79 89.2362 168.731 88.9791C168.695 88.8228 168.757 88.647 169.044 88.0676C170.098 85.9323 170.108 83.8783 169.079 81.7917C168.627 80.877 168.617 80.6948 168.998 80.3334C169.187 80.1544 169.268 80.1251 169.532 80.1251C169.978 80.1251 170.209 80.3497 170.606 81.1668C171.218 82.4232 171.469 83.5137 171.465 84.9101C171.462 86.3457 171.228 87.332 170.577 88.6568C170.202 89.4152 170.017 89.6171 169.642 89.6659C169.529 89.6756 169.346 89.6496 169.239 89.6008ZM166.309 88.0969C166.117 88.0188 165.899 87.7584 165.834 87.5305C165.762 87.2766 165.821 87.0748 166.107 86.6028C166.479 85.9941 166.563 85.6686 166.563 84.8743C166.563 84.0801 166.479 83.7513 166.107 83.1459C165.98 82.9408 165.857 82.6934 165.827 82.5958C165.707 82.1954 166.042 81.7038 166.492 81.6192C166.872 81.5476 167.133 81.7169 167.484 82.2637C168.497 83.8457 168.497 85.955 167.484 87.524C167.126 88.0741 166.729 88.2694 166.309 88.0969ZM188.128 90.5513C188.467 90.4308 188.76 90.3169 188.779 90.2974C188.799 90.2778 188.734 90.063 188.633 89.8156C188.431 89.3111 188.464 89.3241 187.741 89.4608C186.963 89.6105 186.511 89.4771 185.658 88.8488C185.427 88.6763 185.186 88.5364 185.127 88.5364C185.065 88.5364 184.935 88.6242 184.831 88.7349C184.613 88.9693 184.58 89.3339 184.756 89.552C184.912 89.7407 187.051 90.7596 187.305 90.7661C187.419 90.7694 187.787 90.6717 188.128 90.5513ZM187.79 88.9139C188.106 88.8488 188.141 88.8293 188.086 88.7252C188.024 88.6112 185.065 86.1569 184.808 86.0039C184.597 85.8802 184.424 85.9095 184.248 86.0983C183.734 86.6484 183.796 86.7656 185.127 87.7844C186.735 89.0181 186.908 89.0897 187.79 88.9139ZM183.819 85.1933C183.819 85.1771 183.483 84.8874 183.073 84.5521C182.061 83.7188 181.843 83.4063 181.843 82.7878C181.843 82.2735 182.188 81.7755 182.741 81.489C183.015 81.3458 183.506 81.3035 183.783 81.3946C183.978 81.4597 184.863 81.9382 186.087 82.6413L186.345 82.7911L186.556 81.782C186.774 80.7501 186.777 80.4767 186.576 80.4148C186.514 80.3953 185.332 80.1804 183.952 79.9363C181.498 79.5034 181.227 79.4773 181.114 79.6629C181.052 79.7605 180.117 84.0899 180.117 84.2721C180.117 84.3633 180.163 84.4772 180.222 84.526C180.277 84.5749 181.074 84.7474 181.992 84.9101C183.763 85.2291 183.819 85.2389 183.819 85.1933Z" fill="white"/>
<rect x="131" y="114" width="92" height="13" fill="#1A1A1A"/>
<path d="M134.25 118C134.25 117.034 135.034 116.25 136 116.25H218C218.966 116.25 219.75 117.034 219.75 118V125.75H134.25V118Z" fill="#141414" stroke="#2A2828" stroke-width="0.5"/>
<path d="M170.642 121.557L171.415 121.797C171.294 122.226 171.106 122.535 170.831 122.741C170.557 122.947 170.213 123.049 169.785 123.049C169.27 123.049 168.841 122.878 168.498 122.518C168.172 122.157 168 121.677 168 121.059C168 120.407 168.172 119.909 168.498 119.549C168.824 119.189 169.27 119 169.819 119C170.299 119 170.694 119.137 170.986 119.429C171.157 119.601 171.294 119.841 171.38 120.15L170.591 120.338C170.539 120.132 170.454 119.978 170.299 119.858C170.145 119.738 170.008 119.686 169.785 119.686C169.493 119.686 169.253 119.789 169.081 119.995C168.909 120.201 168.806 120.544 168.806 121.008C168.806 121.505 168.892 121.848 169.081 122.071C169.27 122.294 169.493 122.38 169.767 122.38C169.973 122.38 170.162 122.312 170.316 122.174C170.471 122.054 170.574 121.848 170.642 121.557Z" fill="white"/>
<path d="M175.617 122.998H174.759L174.416 122.106H172.854L172.528 122.998H171.688L173.215 119.086H174.055L175.617 122.998ZM174.158 121.437L173.626 119.978L173.095 121.437H174.158Z" fill="white"/>
<path d="M175.842 121.728L176.614 121.659C176.665 121.917 176.751 122.106 176.888 122.226C177.026 122.346 177.214 122.414 177.455 122.414C177.712 122.414 177.901 122.363 178.038 122.26C178.175 122.157 178.227 122.02 178.227 121.883C178.227 121.797 178.193 121.711 178.141 121.642C178.09 121.574 177.987 121.522 177.849 121.471C177.764 121.436 177.541 121.385 177.214 121.299C176.786 121.196 176.494 121.059 176.322 120.922C176.082 120.716 175.962 120.441 175.962 120.132C175.962 119.926 176.013 119.755 176.133 119.566C176.254 119.395 176.408 119.257 176.614 119.171C176.82 119.086 177.077 119.034 177.386 119.034C177.884 119.034 178.244 119.137 178.501 119.36C178.742 119.583 178.879 119.858 178.896 120.218L178.107 120.252C178.072 120.047 178.004 119.909 177.884 119.823C177.781 119.738 177.609 119.686 177.386 119.686C177.163 119.686 176.974 119.738 176.837 119.823C176.751 119.875 176.717 119.961 176.717 120.064C176.717 120.149 176.751 120.235 176.837 120.304C176.94 120.39 177.18 120.476 177.558 120.561C177.935 120.647 178.227 120.75 178.416 120.836C178.604 120.939 178.742 121.059 178.845 121.23C178.948 121.402 178.999 121.608 178.999 121.848C178.999 122.071 178.93 122.277 178.81 122.483C178.69 122.672 178.501 122.826 178.278 122.912C178.055 122.998 177.764 123.049 177.42 123.049C176.923 123.049 176.545 122.929 176.288 122.706C176.048 122.483 175.876 122.157 175.842 121.728Z" fill="white"/>
<path d="M180.559 122.998V119.738H179.393V119.086H182.515V119.738H181.349V122.998H180.559Z" fill="white"/>
<path d="M183.031 122.998V119.103H183.838V122.329H185.794V122.998H183.031Z" fill="white"/>
<path d="M186.359 122.998V119.086H189.259V119.738H187.149V120.613H189.105V121.265H187.149V122.329H189.328V122.998H186.359Z" fill="white"/>
<path d="M189.809 121.728L190.581 121.659C190.632 121.917 190.718 122.106 190.855 122.226C190.993 122.346 191.181 122.414 191.422 122.414C191.679 122.414 191.868 122.363 192.005 122.26C192.142 122.157 192.194 122.02 192.194 121.883C192.194 121.797 192.159 121.711 192.108 121.642C192.056 121.574 191.953 121.522 191.816 121.471C191.73 121.436 191.507 121.385 191.181 121.299C190.752 121.196 190.461 121.059 190.289 120.922C190.049 120.716 189.929 120.441 189.929 120.132C189.929 119.926 189.98 119.755 190.1 119.566C190.22 119.395 190.375 119.257 190.598 119.171C190.821 119.086 191.061 119.034 191.37 119.034C191.868 119.034 192.228 119.137 192.485 119.36C192.726 119.583 192.863 119.858 192.88 120.218L192.091 120.252C192.056 120.047 191.988 119.909 191.868 119.823C191.765 119.738 191.593 119.686 191.37 119.686C191.147 119.686 190.958 119.738 190.838 119.823C190.752 119.875 190.718 119.961 190.718 120.064C190.718 120.149 190.752 120.235 190.838 120.304C190.941 120.39 191.181 120.476 191.559 120.561C191.936 120.647 192.228 120.75 192.417 120.836C192.605 120.939 192.743 121.059 192.846 121.23C192.949 121.402 193 121.608 193 121.848C193 122.071 192.931 122.277 192.811 122.483C192.691 122.672 192.503 122.826 192.279 122.912C192.056 122.998 191.765 123.049 191.422 123.049C190.924 123.049 190.546 122.929 190.289 122.706C190.014 122.483 189.86 122.157 189.809 121.728Z" fill="white"/>
<path fill-rule="evenodd" clip-rule="evenodd" d="M162.513 121.945C162.197 122.563 161.567 122.954 160.874 122.954C159.866 122.954 159.046 122.134 159.046 121.126C159.046 120.118 159.866 119.298 160.874 119.298C161.58 119.298 162.223 119.702 162.525 120.345L162.273 120.811C162.122 120.168 161.555 119.689 160.861 119.689C160.067 119.689 159.424 120.332 159.424 121.126C159.424 121.92 160.067 122.563 160.861 122.563C161.441 122.563 161.933 122.223 162.172 121.731L163.786 118.706L166.811 123.824H167.214L163.924 118.265L163.761 118L163.609 118.277L163.067 119.298C162.538 118.63 161.731 118.252 160.874 118.252C159.286 118.252 158 119.538 158 121.126C158 122.714 159.286 124 160.874 124C161.983 124 162.992 123.357 163.471 122.361L163.798 121.731L165.059 123.824H165.462L163.773 121.013L163.168 122.185L163.155 122.21C162.739 123.092 161.845 123.66 160.874 123.66C159.475 123.66 158.353 122.525 158.353 121.139C158.353 119.752 159.487 118.618 160.887 118.618C161.693 118.618 162.45 118.996 162.916 119.651L162.727 120.004C162.336 119.374 161.643 118.983 160.874 118.983C159.676 118.983 158.693 119.966 158.693 121.164C158.693 122.361 159.676 123.345 160.874 123.345C161.693 123.345 162.45 122.891 162.815 122.147L163.798 120.193L165.966 123.811H166.37L163.773 119.475L162.525 121.92L162.513 121.945Z" fill="white"/>
<ellipse cx="160.837" cy="121.088" rx="1.07143" ry="1.07143" fill="#E4312E"/>
<rect x="149" y="420" width="90" height="56" rx="2" transform="rotate(-90 149 420)" fill="#88898D"/>
<g clip-path="url(#clip1_2582_1672)">
<path d="M178.205 341.196V349.807C178.205 350.466 178.741 351.001 179.4 351.001H185.599C186.258 351.001 186.794 350.466 186.794 349.807V341.196C186.794 340.537 186.258 340.001 185.599 340.001H179.4C178.741 340.001 178.205 340.537 178.205 341.196ZM182.338 341.013V343.618H181.122C181.021 343.618 180.939 343.536 180.939 343.435V341.013H182.338ZM182.661 343.618V341.013H184.06V343.618H182.661ZM181.8 340.69V340.324H183.199V340.69H181.8ZM181.477 340.69H180.078V340.324H181.477V340.69ZM180.616 341.013V343.435C180.616 343.714 180.843 343.941 181.122 343.941H185.782V347.062H179.217V341.196C179.217 341.095 179.299 341.013 179.4 341.013H180.616ZM182.338 347.385V349.99H180.939V347.385H182.338ZM183.199 350.313V350.679H181.8V350.313H183.199ZM182.661 349.99V347.385H184.06V349.99H182.661ZM178.894 345.34H178.528V342.391H178.894V345.34ZM178.894 345.663V348.612H178.528V345.663H178.894ZM179.217 347.385H180.616V349.99H179.4C179.299 349.99 179.217 349.908 179.217 349.807V347.385ZM181.477 350.313V350.679H180.078V350.313H181.477ZM183.522 350.679V350.313H184.921V350.679H183.522ZM184.383 349.99V347.385H185.782V349.807C185.782 349.908 185.7 349.99 185.599 349.99H184.383ZM186.105 345.663H186.471V348.612H186.105V345.663ZM186.105 345.34V342.391H186.471V345.34H186.105ZM185.782 343.618H184.383V341.013H185.599C185.7 341.013 185.782 341.095 185.782 341.196V343.618ZM183.522 340.69V340.324H184.921V340.69H183.522ZM179.4 340.324H179.755V340.69H179.4C179.121 340.69 178.894 340.917 178.894 341.196V342.068H178.528V341.196C178.528 340.715 178.919 340.324 179.4 340.324ZM178.528 349.807V348.935H178.894V349.807C178.894 350.086 179.121 350.313 179.4 350.313H179.755V350.679H179.4C178.919 350.679 178.528 350.287 178.528 349.807ZM185.599 350.679H185.244V350.313H185.599C185.878 350.313 186.105 350.086 186.105 349.807V348.935H186.471V349.807C186.471 350.287 186.08 350.679 185.599 350.679ZM186.471 341.196V342.068H186.105V341.196C186.105 340.917 185.878 340.69 185.599 340.69H185.244V340.324H185.599C186.08 340.324 186.471 340.715 186.471 341.196Z" fill="white"/>
</g>
<path d="M179.681 356.833C179.711 356.732 179.831 356.629 179.947 356.607C180.022 356.592 180.074 356.609 180.283 356.717C181.125 357.153 181.901 357.342 182.841 357.342C183.75 357.342 184.458 357.175 185.306 356.758C185.488 356.669 185.658 356.596 185.682 356.596C185.773 356.596 185.904 356.671 185.955 356.753C186.025 356.865 186.012 357.053 185.928 357.143C185.895 357.178 185.747 357.268 185.599 357.343C185.015 357.641 184.373 357.845 183.705 357.946C183.291 358.008 182.508 358.021 182.129 357.971C181.431 357.879 180.808 357.695 180.198 357.399C179.83 357.22 179.678 357.108 179.678 357.015C179.678 356.997 179.673 356.966 179.668 356.948C179.663 356.929 179.668 356.878 179.681 356.833ZM180.315 355.621C180.36 355.465 180.552 355.353 180.695 355.398C180.73 355.408 180.889 355.482 181.05 355.561C181.731 355.895 182.46 356.033 183.176 355.966C183.764 355.91 184.135 355.805 184.677 355.539C185.042 355.362 185.098 355.353 185.245 355.456C185.385 355.555 185.408 355.801 185.29 355.93C185.208 356.019 184.626 356.298 184.296 356.406C183.207 356.761 182.036 356.706 180.966 356.251C180.417 356.017 180.248 355.852 180.315 355.621ZM180.958 354.371C181.001 354.275 181.103 354.192 181.206 354.169C181.268 354.154 181.338 354.179 181.569 354.293C182.42 354.713 183.238 354.717 184.069 354.307C184.434 354.127 184.506 354.123 184.65 354.275C184.722 354.35 184.733 354.383 184.733 354.488C184.733 354.665 184.644 354.757 184.318 354.916C183.818 355.159 183.383 355.259 182.827 355.258C182.255 355.257 181.862 355.163 181.334 354.904C181.032 354.755 180.952 354.681 180.932 354.532C180.928 354.486 180.939 354.414 180.958 354.371ZM181.557 353.204C181.588 353.127 181.692 353.04 181.783 353.014C181.884 352.986 181.964 353.009 182.153 353.123C182.395 353.271 182.525 353.305 182.841 353.305C183.158 353.305 183.289 353.271 183.53 353.123C183.611 353.073 183.71 353.023 183.749 353.012C183.908 352.964 184.104 353.097 184.138 353.276C184.166 353.428 184.099 353.532 183.881 353.672C183.251 354.075 182.411 354.075 181.786 353.672C181.566 353.529 181.489 353.371 181.557 353.204Z" fill="white"/>
</g>
<defs>
<clipPath id="clip0_2582_1672">
<rect width="355" height="353" fill="white"/>
</clipPath>
<clipPath id="clip1_2582_1672">
<rect width="11" height="11" fill="white" transform="matrix(0 -1 1 0 177 351.001)"/>
</clipPath>
</defs>
</svg>
